<svg width="19" height="16" viewBox="0 0 19 16" fill="none" xmlns="http://www.w3.org/2000/svg">
<path d="M17.5769 0.799805H0.862584C0.692087 0.799805 0.528574 0.868766 0.408015 0.991517C0.287456 1.11427 0.219727 1.28075 0.219727 1.45435V14.5453C0.219727 14.7189 0.287456 14.8853 0.408015 15.0081C0.528574 15.1308 0.692087 15.1998 0.862584 15.1998H17.5769C17.7474 15.1998 17.9109 15.1308 18.0314 15.0081C18.152 14.8853 18.2197 14.7189 18.2197 14.5453V1.45435C18.2197 1.28075 18.152 1.11427 18.0314 0.991517C17.9109 0.868766 17.7474 0.799805 17.5769 0.799805ZM9.61428 9.17103C9.50146 9.26033 9.36263 9.30881 9.21973 9.30881C9.07682 9.30881 8.93799 9.26033 8.82517 9.17103L2.532 4.18749L3.32111 3.15412L9.21973 7.82512L15.1183 3.15412L15.9074 4.18749L9.61428 9.17103Z" fill="#CCAA60"/>
</svg>
