<svg width="20" height="19" viewBox="0 0 20 19" fill="none" xmlns="http://www.w3.org/2000/svg">
<path d="M13.8655 1.64589C14.9461 1.649 15.9816 2.06377 16.7458 2.79962C17.5099 3.53547 17.9407 4.53261 17.9439 5.57325V13.4271C17.9407 14.4678 17.5099 15.4649 16.7458 16.2008C15.9816 16.9366 14.9461 17.3514 13.8655 17.3545H5.70952C4.62885 17.3514 3.59336 16.9366 2.82921 16.2008C2.06506 15.4649 1.63433 14.4678 1.6311 13.4271V5.57325C1.63433 4.53261 2.06506 3.53547 2.82921 2.79962C3.59336 2.06377 4.62885 1.649 5.70952 1.64589H13.8655ZM13.8655 0.0751953H5.70952C2.56922 0.0751953 0 2.54926 0 5.57325V13.4271C0 16.4511 2.56922 18.9252 5.70952 18.9252H13.8655C17.0058 18.9252 19.575 16.4511 19.575 13.4271V5.57325C19.575 2.54926 17.0058 0.0751953 13.8655 0.0751953Z" fill="white"/>
<path d="M15.0887 5.57354C14.8467 5.57354 14.6102 5.50444 14.409 5.37499C14.2078 5.24553 14.051 5.06153 13.9584 4.84626C13.8658 4.63099 13.8416 4.3941 13.8888 4.16557C13.936 3.93704 14.0525 3.72711 14.2236 3.56235C14.3947 3.39759 14.6127 3.28538 14.85 3.23992C15.0874 3.19446 15.3334 3.2178 15.5569 3.30697C15.7805 3.39613 15.9715 3.54714 16.106 3.74088C16.2404 3.93462 16.3122 4.1624 16.3122 4.39541C16.3125 4.55022 16.2811 4.70357 16.2197 4.84665C16.1584 4.98974 16.0683 5.11975 15.9546 5.22921C15.8409 5.33868 15.7059 5.42545 15.5573 5.48453C15.4087 5.54362 15.2495 5.57387 15.0887 5.57354ZM9.78731 6.35867C10.4326 6.35867 11.0634 6.54294 11.5999 6.88816C12.1365 7.23339 12.5547 7.72407 12.8016 8.29816C13.0485 8.87225 13.1131 9.50396 12.9873 10.1134C12.8614 10.7229 12.5506 11.2827 12.0943 11.7221C11.6381 12.1615 11.0567 12.4607 10.4238 12.5819C9.79092 12.7031 9.13492 12.6409 8.53875 12.4031C7.94257 12.1653 7.43302 11.7626 7.07452 11.246C6.71601 10.7293 6.52466 10.1219 6.52466 9.50048C6.52559 8.66749 6.86962 7.86888 7.48129 7.27987C8.09295 6.69086 8.92228 6.35956 9.78731 6.35867ZM9.78731 4.78798C8.81941 4.78798 7.87326 5.06436 7.06848 5.58218C6.26371 6.09999 5.63647 6.83599 5.26607 7.69708C4.89568 8.55818 4.79876 9.50571 4.98759 10.4198C5.17642 11.334 5.6425 12.1737 6.3269 12.8327C7.01131 13.4918 7.88329 13.9406 8.83258 14.1224C9.78188 14.3043 10.7658 14.2109 11.6601 13.8543C12.5543 13.4976 13.3186 12.8936 13.8563 12.1186C14.394 11.3436 14.6811 10.4325 14.6811 9.50048C14.6811 8.25065 14.1655 7.052 13.2477 6.16824C12.33 5.28447 11.0852 4.78798 9.78731 4.78798Z" fill="white"/>
</svg>
