<svg width="18" height="17" viewBox="0 0 18 17" fill="none" xmlns="http://www.w3.org/2000/svg">
<path d="M17.1799 12.8312C16.9818 12.6202 16.2825 11.9964 14.9968 11.171C13.7017 10.3385 12.7465 9.81934 12.4725 9.69829C12.4484 9.68758 12.4218 9.68365 12.3956 9.68692C12.3694 9.6902 12.3446 9.70056 12.3238 9.71688C11.8825 10.0611 11.1395 10.6933 11.0996 10.7274C10.8423 10.9479 10.8423 10.9479 10.6317 10.8792C10.2613 10.7578 9.11078 10.1468 8.10821 9.14198C7.10564 8.13714 6.46319 6.95812 6.34176 6.58814C6.27231 6.37715 6.27231 6.37715 6.49355 6.11987C6.5277 6.08003 7.16028 5.33702 7.50447 4.89608C7.52079 4.87531 7.53115 4.85049 7.53442 4.82428C7.5377 4.79807 7.53377 4.77147 7.52306 4.74732C7.40201 4.47296 6.88289 3.51821 6.05032 2.22308C5.22383 0.937808 4.60073 0.238443 4.38974 0.0403585C4.37038 0.0220881 4.34645 0.00937816 4.32047 0.00356797C4.29449 -0.00224222 4.26743 -0.000937497 4.24213 0.00734453C3.50461 0.260788 2.79302 0.584178 2.11707 0.973099C1.46453 1.35243 0.846756 1.78862 0.270927 2.27658C0.250826 2.29367 0.235756 2.31591 0.227333 2.34091C0.21891 2.36591 0.217451 2.39274 0.223113 2.41851C0.302423 2.78811 0.681518 4.33104 1.85789 6.46823C3.05817 8.64943 3.88997 9.76697 5.65263 11.5235C7.41529 13.2801 8.56813 14.162 10.7516 15.3623C12.8888 16.5386 14.4325 16.9181 14.8014 16.9967C14.8272 17.0023 14.8541 17.0008 14.8791 16.9924C14.9042 16.984 14.9265 16.9689 14.9437 16.9488C15.4316 16.373 15.8676 15.7553 16.2468 15.1027C16.6356 14.4267 16.959 13.7152 17.2126 12.9777C17.2207 12.9526 17.2219 12.9258 17.2162 12.9C17.2104 12.8742 17.1979 12.8505 17.1799 12.8312Z" fill="#CCAA60"/>
</svg>
