<svg width="20" height="21" viewBox="0 0 20 21" fill="none" xmlns="http://www.w3.org/2000/svg">
<path d="M10.0681 0.557129C4.57613 0.557129 0.123047 5.00823 0.123047 10.4978C0.123047 14.5672 2.5738 18.0642 6.07677 19.6041C6.05013 18.9118 6.07233 18.0775 6.24992 17.3231C6.44083 16.5154 7.52858 11.9045 7.52858 11.9045C7.52858 11.9045 7.20891 11.2699 7.20891 10.3336C7.20891 8.86022 8.06135 7.75965 9.12689 7.75965C10.0326 7.75965 10.4677 8.43863 10.4677 9.25075C10.4677 10.1605 9.88609 11.5185 9.58863 12.7788C9.34 13.835 10.117 14.6915 11.1603 14.6915C13.0428 14.6915 14.3125 12.2729 14.3125 9.40607C14.3125 7.22712 12.843 5.59845 10.1747 5.59845C7.16008 5.59845 5.27761 7.84841 5.27761 10.3602C5.27761 11.2256 5.53512 11.838 5.9347 12.3084C6.11673 12.5258 6.14337 12.6146 6.07677 12.8631C6.02794 13.0451 5.92138 13.4844 5.87254 13.6619C5.80595 13.9149 5.60172 14.0036 5.37529 13.9104C3.98564 13.3424 3.33744 11.8247 3.33744 10.1117C3.33744 7.28925 5.72159 3.90322 10.4455 3.90322C14.2415 3.90322 16.7411 6.65021 16.7411 9.5969C16.7411 13.4977 14.57 16.4089 11.3734 16.4089C10.299 16.4089 9.29116 15.8275 8.94486 15.1708C8.94486 15.1708 8.36769 17.4607 8.24338 17.9044C8.03471 18.6722 7.62181 19.4355 7.24443 20.0346C8.15986 20.3045 9.10925 20.442 10.0637 20.4428C15.5557 20.4428 20.0088 15.9917 20.0088 10.5022C20.0088 5.01267 15.5601 0.557129 10.0681 0.557129Z" fill="white"/>
</svg>
