<svg width="22" height="17" viewBox="0 0 22 17" fill="none" xmlns="http://www.w3.org/2000/svg">
<path d="M21.1236 2.09893C20.3369 2.44078 19.5045 2.66599 18.6527 2.76745C19.5478 2.24329 20.221 1.41056 20.546 0.425445C19.6997 0.920322 18.7753 1.26755 17.8125 1.45226C17.407 1.02735 16.9194 0.689316 16.3793 0.458716C15.8391 0.228116 15.2577 0.109762 14.6704 0.110847C12.2926 0.110847 10.3683 2.00717 10.3683 4.34481C10.3666 4.66997 10.4039 4.99416 10.4793 5.31046C8.77418 5.23052 7.10455 4.79556 5.5772 4.03339C4.04985 3.27122 2.69841 2.19863 1.60934 0.884234C1.22727 1.52834 1.02521 2.26324 1.02427 3.01214C1.02427 4.48027 1.79023 5.77798 2.94682 6.53826C2.26158 6.522 1.59037 6.34063 0.990193 6.00956V6.062C0.990193 8.11562 2.4758 9.82407 4.44203 10.2129C4.07229 10.3115 3.69127 10.3615 3.30861 10.3615C3.03708 10.362 2.76617 10.3356 2.49983 10.2829C3.04644 11.9651 4.63735 13.1885 6.52188 13.2235C4.99056 14.4036 3.11051 15.0415 1.1772 15.0368C0.834038 15.0363 0.49119 15.0158 0.150391 14.9756C2.11714 16.2315 4.40334 16.8958 6.73685 16.8894C14.6612 16.8894 18.9905 10.4358 18.9905 4.83856C18.9905 4.65504 18.9856 4.47153 18.9769 4.29238C19.8172 3.69467 20.5441 2.95189 21.1236 2.09893Z" fill="white"/>
</svg>
