<svg width="482" height="79" viewBox="0 0 482 79" fill="none" xmlns="http://www.w3.org/2000/svg">
<path d="M58.44 23.3233C58.44 19.1881 55.009 15.8359 50.7765 15.8359H9.66352C5.43101 15.8359 2 19.1881 2 23.3233" stroke="url(#paint0_angular_109_12)" stroke-width="3.5" stroke-miterlimit="10"/>
<path d="M4 61.1953C4 65.1965 7.25233 68.4407 11.2634 68.4407H50.2295C54.2406 68.4407 57.4929 65.1965 57.4929 61.1953" stroke="url(#paint1_angular_109_12)" stroke-width="3.5" stroke-miterlimit="10"/>
<path d="M18.5782 26.5H15V57.2272H18.5782V26.5Z" fill="url(#paint2_angular_109_12)"/>
<path d="M25.2315 26.5H21.6533V57.2272H25.2315V26.5Z" fill="url(#paint3_angular_109_12)"/>
<path d="M32.0099 26.5H28.4316V57.2272H32.0099V26.5Z" fill="url(#paint4_angular_109_12)"/>
<path d="M38.6007 26.5H35.0225V57.2272H38.6007V26.5Z" fill="url(#paint5_angular_109_12)"/>
<path d="M45.3487 26.5H41.7705V57.2272H45.3487V26.5Z" fill="url(#paint6_angular_109_12)"/>
<path d="M18.5782 73.0918H15V78.5H18.5782V73.0918Z" fill="url(#paint7_angular_109_12)"/>
<path d="M25.2315 73.0918H21.6533V78.5H25.2315V73.0918Z" fill="url(#paint8_angular_109_12)"/>
<path d="M32.0108 73.0918H28.4326V78.5H32.0108V73.0918Z" fill="url(#paint9_angular_109_12)"/>
<path d="M38.6017 73.0918H35.0234V78.5H38.6017V73.0918Z" fill="url(#paint10_angular_109_12)"/>
<path d="M45.3487 73.0918H41.7705V78.5H45.3487V73.0918Z" fill="url(#paint11_angular_109_12)"/>
<path d="M25.2296 0.5H21.6514V5.90822H25.2296V0.5Z" fill="url(#paint12_angular_109_12)"/>
<path d="M32.0099 0.5H28.4316V5.90822H32.0099V0.5Z" fill="url(#paint13_angular_109_12)"/>
<path d="M38.5997 0.5H35.0215V5.90822H38.5997V0.5Z" fill="url(#paint14_angular_109_12)"/>
<path d="M48.4863 24.0694V20.5L12.9999 20.5V24.0694L48.4863 24.0694Z" fill="url(#paint15_angular_109_12)"/>
<path d="M48 63.8702V60.3008L12.5136 60.3008V63.8702L48 63.8702Z" fill="url(#paint16_angular_109_12)"/>
<path d="M48 11.3438V7.77441L12.5136 7.77441V11.3438L48 11.3438Z" fill="url(#paint17_angular_109_12)"/>
<path d="M83.7004 54.475C83.7004 55.645 83.7871 56.49 83.9604 57.01C84.1771 57.53 84.5671 57.8767 85.1304 58.05C85.6938 58.2233 86.6038 58.31 87.8604 58.31H91.7604C94.8371 58.31 97.4371 57.465 99.5604 55.775C101.684 54.0417 103.092 51.7233 103.785 48.82C103.829 48.69 103.959 48.6467 104.175 48.69C104.392 48.69 104.5 48.755 104.5 48.885C104.11 52.9583 103.915 56.3383 103.915 59.025C103.915 59.3717 103.85 59.6317 103.72 59.805C103.59 59.935 103.33 60 102.94 60H72.5204C72.4338 60 72.3904 59.87 72.3904 59.61C72.3904 59.35 72.4338 59.22 72.5204 59.22C73.9938 59.22 75.0554 59.1117 75.7054 58.895C76.3988 58.6783 76.8538 58.2667 77.0704 57.66C77.3304 57.01 77.4604 56.035 77.4604 54.735V24.64C77.4604 23.34 77.3304 22.3867 77.0704 21.78C76.8538 21.1733 76.3988 20.7617 75.7054 20.545C75.0121 20.285 73.9504 20.155 72.5204 20.155C72.4338 20.155 72.3904 20.025 72.3904 19.765C72.3904 19.505 72.4338 19.375 72.5204 19.375L75.8354 19.44C77.7421 19.5267 79.3021 19.57 80.5154 19.57C81.8154 19.57 83.4188 19.5267 85.3254 19.44L88.5754 19.375C88.7054 19.375 88.7704 19.505 88.7704 19.765C88.7704 20.025 88.7054 20.155 88.5754 20.155C87.1454 20.155 86.0838 20.285 85.3904 20.545C84.7404 20.7617 84.2854 21.195 84.0254 21.845C83.8088 22.4517 83.7004 23.405 83.7004 24.705V54.475ZM130.241 55.905C130.328 55.905 130.415 55.9917 130.501 56.165C130.631 56.3383 130.653 56.4683 130.566 56.555C128.963 58.0283 127.36 59.1117 125.756 59.805C124.153 60.455 122.42 60.78 120.556 60.78C117.913 60.78 115.616 60.195 113.666 59.025C111.76 57.855 110.286 56.3167 109.246 54.41C108.25 52.5033 107.751 50.445 107.751 48.235C107.751 45.6783 108.38 43.3383 109.636 41.215C110.893 39.0917 112.605 37.4233 114.771 36.21C116.981 34.9533 119.43 34.325 122.116 34.325C124.716 34.325 126.731 34.9533 128.161 36.21C129.591 37.4667 130.306 39.33 130.306 41.8C130.306 43.0567 130.046 43.685 129.526 43.685L113.666 43.75C113.623 44.14 113.601 44.725 113.601 45.505C113.601 49.3183 114.468 52.3517 116.201 54.605C117.978 56.815 120.491 57.92 123.741 57.92C124.955 57.92 125.973 57.79 126.796 57.53C127.62 57.2267 128.725 56.7067 130.111 55.97L130.241 55.905ZM119.776 35.625C118.173 35.625 116.851 36.2533 115.811 37.51C114.815 38.7233 114.143 40.4133 113.796 42.58L124.196 42.385C124.11 37.8783 122.636 35.625 119.776 35.625ZM160.729 59.22C160.859 59.22 160.924 59.35 160.924 59.61C160.924 59.87 160.859 60 160.729 60L158.454 59.935C157.934 59.8917 157.176 59.87 156.179 59.87L151.694 59.935C151.044 59.9783 150.134 60 148.964 60C148.834 60 148.769 59.87 148.769 59.61C148.769 59.35 148.834 59.22 148.964 59.22C150.091 59.22 150.654 58.9167 150.654 58.31C150.654 57.9633 150.416 57.4217 149.939 56.685L145.454 49.925L142.659 54.02C141.706 55.3633 141.229 56.49 141.229 57.4C141.229 58.6133 142.269 59.22 144.349 59.22C144.479 59.22 144.544 59.35 144.544 59.61C144.544 59.87 144.479 60 144.349 60C143.179 60 142.312 59.9783 141.749 59.935L137.849 59.87L135.249 59.935C134.816 59.9783 134.079 60 133.039 60C132.909 60 132.844 59.87 132.844 59.61C132.844 59.35 132.909 59.22 133.039 59.22C134.296 59.22 135.639 58.7217 137.069 57.725C138.542 56.7283 139.929 55.3417 141.229 53.565L144.674 48.82L139.019 40.305C138.066 38.8317 137.112 37.705 136.159 36.925C135.206 36.1017 134.339 35.69 133.559 35.69C133.472 35.69 133.429 35.56 133.429 35.3C133.429 35.04 133.472 34.91 133.559 34.91C134.469 34.91 135.141 34.9317 135.574 34.975L137.589 35.04L141.944 34.975C142.637 34.9317 143.591 34.91 144.804 34.91C144.891 34.91 144.934 35.04 144.934 35.3C144.934 35.56 144.891 35.69 144.804 35.69C143.677 35.69 143.114 35.9933 143.114 36.6C143.114 37.0333 143.352 37.575 143.829 38.225L147.859 44.335L150.134 40.89C151.131 39.4167 151.629 38.29 151.629 37.51C151.629 36.2967 150.567 35.69 148.444 35.69C148.357 35.69 148.314 35.56 148.314 35.3C148.314 35.04 148.357 34.91 148.444 34.91C149.614 34.91 150.502 34.9317 151.109 34.975L155.009 35.04L157.609 34.975C158.042 34.9317 158.779 34.91 159.819 34.91C159.949 34.91 160.014 35.04 160.014 35.3C160.014 35.56 159.949 35.69 159.819 35.69C158.562 35.69 157.197 36.1883 155.724 37.185C154.294 38.1817 152.929 39.5683 151.629 41.345L148.574 45.44L154.684 54.605C155.724 56.165 156.786 57.335 157.869 58.115C158.952 58.8517 159.906 59.22 160.729 59.22ZM203.876 18.66C208.686 18.66 212.565 19.3317 215.511 20.675C215.858 20.8483 216.075 21.0217 216.161 21.195C216.248 21.325 216.335 21.65 216.421 22.17L217.201 30.75C217.201 30.88 217.093 30.9667 216.876 31.01C216.66 31.0533 216.508 30.9883 216.421 30.815C215.295 27.2617 213.605 24.5533 211.351 22.69C209.141 20.8267 206.39 19.895 203.096 19.895C199.933 19.895 197.095 20.6967 194.581 22.3C192.111 23.86 190.183 26.135 188.796 29.125C187.41 32.0717 186.716 35.5167 186.716 39.46C186.716 43.36 187.453 46.8483 188.926 49.925C190.4 52.9583 192.415 55.32 194.971 57.01C197.528 58.7 200.41 59.545 203.616 59.545C206.78 59.545 209.401 58.7217 211.481 57.075C213.605 55.385 215.468 52.72 217.071 49.08C217.115 48.95 217.245 48.9067 217.461 48.95C217.678 48.9933 217.786 49.0583 217.786 49.145L216.941 56.945C216.898 57.465 216.811 57.79 216.681 57.92C216.595 58.05 216.378 58.2017 216.031 58.375C212.131 59.9783 207.993 60.78 203.616 60.78C198.98 60.78 194.841 59.9133 191.201 58.18C187.561 56.4033 184.723 53.9333 182.686 50.77C180.65 47.5633 179.631 43.9017 179.631 39.785C179.631 35.7117 180.693 32.0717 182.816 28.865C184.94 25.6583 187.843 23.1667 191.526 21.39C195.21 19.57 199.326 18.66 203.876 18.66ZM236.091 60.845C233.491 60.845 231.195 60.2383 229.201 59.025C227.208 57.7683 225.67 56.1 224.586 54.02C223.503 51.8967 222.961 49.6 222.961 47.13C222.961 44.3133 223.655 41.93 225.041 39.98C226.471 37.9867 228.27 36.5133 230.436 35.56C232.646 34.5633 234.9 34.065 237.196 34.065C239.84 34.065 242.136 34.6933 244.086 35.95C246.08 37.2067 247.596 38.875 248.636 40.955C249.676 42.9917 250.196 45.18 250.196 47.52C250.196 50.12 249.546 52.4383 248.246 54.475C246.99 56.5117 245.278 58.0933 243.111 59.22C240.945 60.3033 238.605 60.845 236.091 60.845ZM238.041 59.545C239.948 59.545 241.4 58.7 242.396 57.01C243.436 55.32 243.956 52.85 243.956 49.6C243.956 46.6967 243.545 44.1617 242.721 41.995C241.941 39.8283 240.858 38.1817 239.471 37.055C238.128 35.9283 236.655 35.365 235.051 35.365C233.101 35.365 231.628 36.1667 230.631 37.77C229.635 39.3733 229.136 41.735 229.136 44.855C229.136 47.6717 229.505 50.2067 230.241 52.46C231.021 54.67 232.083 56.4033 233.426 57.66C234.813 58.9167 236.351 59.545 238.041 59.545ZM285.188 59.22C285.318 59.22 285.383 59.35 285.383 59.61C285.383 59.87 285.318 60 285.188 60C284.104 60 283.259 59.9783 282.653 59.935L278.883 59.87L275.178 59.935C274.528 59.9783 273.661 60 272.578 60C272.448 60 272.383 59.87 272.383 59.61C272.383 59.35 272.448 59.22 272.578 59.22C274.051 59.22 275.026 58.9167 275.503 58.31C275.979 57.7033 276.218 56.5117 276.218 54.735V44.985C276.218 42.5583 275.763 40.7817 274.853 39.655C273.986 38.485 272.599 37.9 270.693 37.9C269.566 37.9 268.418 38.16 267.248 38.68C266.078 39.2 265.016 39.8933 264.063 40.76V54.735C264.063 56.5117 264.301 57.7033 264.778 58.31C265.254 58.9167 266.229 59.22 267.703 59.22C267.833 59.22 267.898 59.35 267.898 59.61C267.898 59.87 267.833 60 267.703 60C266.619 60 265.774 59.9783 265.168 59.935L261.398 59.87L257.628 59.935C257.021 59.9783 256.176 60 255.093 60C254.963 60 254.898 59.87 254.898 59.61C254.898 59.35 254.963 59.22 255.093 59.22C256.566 59.22 257.541 58.9167 258.018 58.31C258.494 57.7033 258.733 56.5117 258.733 54.735V42.32C258.733 40.9333 258.559 39.915 258.213 39.265C257.909 38.615 257.389 38.29 256.653 38.29C256.003 38.29 254.919 38.615 253.403 39.265H253.338C253.164 39.265 253.034 39.1567 252.948 38.94C252.861 38.7233 252.883 38.5933 253.013 38.55L261.528 34.39C261.788 34.3033 261.939 34.26 261.983 34.26C262.416 34.26 262.849 34.7583 263.283 35.755C263.759 36.7083 264.019 37.965 264.063 39.525C267.096 35.9283 270.389 34.13 273.943 34.13C276.326 34.13 278.189 34.8667 279.533 36.34C280.876 37.77 281.548 39.72 281.548 42.19V54.735C281.548 56.5117 281.786 57.7033 282.263 58.31C282.739 58.9167 283.714 59.22 285.188 59.22ZM293.731 38.29C293.731 39.6333 294.186 40.76 295.096 41.67C296.05 42.58 297.415 43.5333 299.191 44.53C300.751 45.3967 301.943 46.1117 302.766 46.675C303.633 47.2383 304.37 47.9967 304.976 48.95C305.626 49.9033 305.951 51.0517 305.951 52.395C305.951 53.8683 305.583 55.2333 304.846 56.49C304.11 57.7467 303.005 58.765 301.531 59.545C300.101 60.325 298.39 60.715 296.396 60.715C294.013 60.715 291.825 60.1083 289.831 58.895C289.571 58.635 289.441 58.375 289.441 58.115L289.311 52.135C289.311 52.005 289.42 51.94 289.636 51.94C289.896 51.8967 290.048 51.9183 290.091 52.005C290.828 54.1717 291.933 55.9483 293.406 57.335C294.923 58.7217 296.526 59.415 298.216 59.415C299.3 59.415 300.145 59.1333 300.751 58.57C301.358 58.0067 301.661 57.1617 301.661 56.035C301.661 54.3883 301.185 53.0883 300.231 52.135C299.278 51.1383 297.891 50.1633 296.071 49.21C294.598 48.43 293.45 47.78 292.626 47.26C291.803 46.6967 291.088 45.96 290.481 45.05C289.918 44.0967 289.636 42.9267 289.636 41.54C289.636 39.07 290.525 37.2283 292.301 36.015C294.121 34.8017 296.31 34.195 298.866 34.195C300.556 34.195 302.29 34.52 304.066 35.17C304.456 35.3433 304.651 35.5817 304.651 35.885C304.651 36.8817 304.63 37.6617 304.586 38.225L304.521 41.345C304.521 41.475 304.391 41.54 304.131 41.54C303.871 41.54 303.741 41.475 303.741 41.345C303.741 40.4783 303.395 39.59 302.701 38.68C302.008 37.7267 301.12 36.9467 300.036 36.34C298.953 35.7333 297.848 35.43 296.721 35.43C294.728 35.43 293.731 36.3833 293.731 38.29ZM340.526 55.905C340.656 55.905 340.764 56.0133 340.851 56.23C340.937 56.4467 340.916 56.5983 340.786 56.685L332.271 60.78L332.011 60.845C331.577 60.845 331.187 60.3683 330.841 59.415C330.494 58.4183 330.299 57.0967 330.256 55.45C327.222 58.96 324.016 60.715 320.636 60.715C318.296 60.715 316.476 60 315.176 58.57C313.876 57.0967 313.226 55.1033 313.226 52.59V42.905C313.226 39.9583 312.554 38.485 311.211 38.485C310.777 38.485 310.171 38.6583 309.391 39.005H309.326C309.152 39.005 309.022 38.8967 308.936 38.68C308.849 38.4633 308.871 38.3117 309.001 38.225L317.256 34.39L317.516 34.325C317.689 34.325 317.884 34.4117 318.101 34.585C318.317 34.7583 318.426 34.91 318.426 35.04V49.795C318.426 52.2217 318.859 54.0417 319.726 55.255C320.636 56.425 322.001 57.01 323.821 57.01C324.904 57.01 326.009 56.75 327.136 56.23C328.306 55.71 329.346 54.995 330.256 54.085V42.905C330.256 41.3883 330.082 40.2833 329.736 39.59C329.432 38.8533 328.934 38.485 328.241 38.485C327.851 38.485 327.244 38.6583 326.421 39.005H326.356C326.182 39.005 326.052 38.8967 325.966 38.68C325.879 38.42 325.922 38.2683 326.096 38.225L334.286 34.39C334.372 34.3467 334.481 34.325 334.611 34.325C334.784 34.325 334.979 34.4117 335.196 34.585C335.412 34.7583 335.521 34.91 335.521 35.04V52.655C335.521 54.1717 335.672 55.2333 335.976 55.84C336.279 56.4467 336.777 56.75 337.471 56.75C337.991 56.75 338.966 56.49 340.396 55.97L340.526 55.905ZM343.319 60C343.189 60 343.124 59.87 343.124 59.61C343.124 59.35 343.189 59.22 343.319 59.22C344.749 59.22 345.724 58.9167 346.244 58.31C346.764 57.66 347.024 56.4683 347.024 54.735V21.52C347.024 20.0033 346.872 18.92 346.569 18.27C346.309 17.5767 345.811 17.23 345.074 17.23C344.424 17.23 343.557 17.49 342.474 18.01H342.409C342.236 18.01 342.106 17.9017 342.019 17.685C341.932 17.4683 341.932 17.3167 342.019 17.23L351.184 12.94L351.444 12.875C351.617 12.875 351.812 12.9617 352.029 13.135C352.289 13.3083 352.419 13.46 352.419 13.59V54.735C352.419 56.5117 352.657 57.7033 353.134 58.31C353.611 58.9167 354.586 59.22 356.059 59.22C356.189 59.22 356.254 59.35 356.254 59.61C356.254 59.87 356.189 60 356.059 60C355.019 60 354.174 59.9783 353.524 59.935L349.689 59.87L345.919 59.935C345.269 59.9783 344.402 60 343.319 60ZM378.916 55.84C379.046 55.84 379.155 55.9267 379.241 56.1C379.371 56.2733 379.371 56.4033 379.241 56.49C377.638 58.0067 376.121 59.1117 374.691 59.805C373.261 60.455 371.745 60.78 370.141 60.78C368.278 60.78 366.696 60.3467 365.396 59.48C364.14 58.57 363.511 57.075 363.511 54.995V40.305C363.511 38.875 363.273 37.9217 362.796 37.445C362.363 36.9683 361.496 36.73 360.196 36.73C360.153 36.73 360.088 36.6867 360.001 36.6C359.958 36.47 359.936 36.34 359.936 36.21C359.936 36.08 359.958 35.9717 360.001 35.885C360.088 35.755 360.153 35.69 360.196 35.69C364.27 35.5167 366.826 33.7617 367.866 30.425C367.953 30.2517 368.126 30.165 368.386 30.165C368.69 30.165 368.841 30.2517 368.841 30.425V35.56C370.878 35.5167 373.76 35.3 377.486 34.91C377.573 34.91 377.66 35.0833 377.746 35.43C377.876 35.7333 377.941 36.08 377.941 36.47C377.941 36.86 377.855 37.25 377.681 37.64C377.551 38.03 377.4 38.2033 377.226 38.16C374.8 37.5967 372.005 37.25 368.841 37.12V52.85C368.841 54.54 369.253 55.7967 370.076 56.62C370.943 57.4 372.135 57.79 373.651 57.79C375.471 57.79 377.183 57.1617 378.786 55.905L378.916 55.84ZM395.291 60.845C392.691 60.845 390.394 60.2383 388.401 59.025C386.407 57.7683 384.869 56.1 383.786 54.02C382.702 51.8967 382.161 49.6 382.161 47.13C382.161 44.3133 382.854 41.93 384.241 39.98C385.671 37.9867 387.469 36.5133 389.636 35.56C391.846 34.5633 394.099 34.065 396.396 34.065C399.039 34.065 401.336 34.6933 403.286 35.95C405.279 37.2067 406.796 38.875 407.836 40.955C408.876 42.9917 409.396 45.18 409.396 47.52C409.396 50.12 408.746 52.4383 407.446 54.475C406.189 56.5117 404.477 58.0933 402.311 59.22C400.144 60.3033 397.804 60.845 395.291 60.845ZM397.241 59.545C399.147 59.545 400.599 58.7 401.596 57.01C402.636 55.32 403.156 52.85 403.156 49.6C403.156 46.6967 402.744 44.1617 401.921 41.995C401.141 39.8283 400.057 38.1817 398.671 37.055C397.327 35.9283 395.854 35.365 394.251 35.365C392.301 35.365 390.827 36.1667 389.831 37.77C388.834 39.3733 388.336 41.735 388.336 44.855C388.336 47.6717 388.704 50.2067 389.441 52.46C390.221 54.67 391.282 56.4033 392.626 57.66C394.012 58.9167 395.551 59.545 397.241 59.545ZM430.542 34.26C431.539 34.26 432.492 34.585 433.402 35.235C434.312 35.885 434.767 36.665 434.767 37.575C434.767 38.3983 434.507 39.07 433.987 39.59C433.51 40.11 432.839 40.37 431.972 40.37C431.409 40.37 430.932 40.2617 430.542 40.045C430.195 39.785 429.827 39.4383 429.437 39.005C429.047 38.615 428.7 38.3333 428.397 38.16C428.094 37.9433 427.725 37.835 427.292 37.835C426.815 37.835 426.295 38.03 425.732 38.42C425.212 38.7667 424.389 39.525 423.262 40.695V54.735C423.262 55.9483 423.435 56.88 423.782 57.53C424.129 58.1367 424.714 58.57 425.537 58.83C426.36 59.09 427.574 59.22 429.177 59.22C429.35 59.22 429.437 59.35 429.437 59.61C429.437 59.87 429.35 60 429.177 60C427.747 60 426.599 59.9783 425.732 59.935L420.597 59.87L416.827 59.935C416.22 59.9783 415.375 60 414.292 60C414.162 60 414.097 59.87 414.097 59.61C414.097 59.35 414.162 59.22 414.292 59.22C415.765 59.22 416.74 58.9167 417.217 58.31C417.694 57.7033 417.932 56.5117 417.932 54.735V42.32C417.932 40.9333 417.759 39.915 417.412 39.265C417.109 38.615 416.589 38.29 415.852 38.29C415.202 38.29 414.119 38.615 412.602 39.265H412.537C412.364 39.265 412.234 39.1567 412.147 38.94C412.06 38.7233 412.082 38.5933 412.212 38.55L420.727 34.39C420.987 34.3033 421.139 34.26 421.182 34.26C421.615 34.26 422.049 34.7367 422.482 35.69C422.915 36.6 423.175 37.8133 423.262 39.33C424.952 37.4233 426.36 36.1017 427.487 35.365C428.614 34.6283 429.632 34.26 430.542 34.26ZM444.778 27.435C443.652 27.435 442.763 27.1317 442.113 26.525C441.507 25.9183 441.203 25.0517 441.203 23.925C441.203 22.8417 441.507 22.0183 442.113 21.455C442.763 20.8483 443.652 20.545 444.778 20.545C445.862 20.545 446.707 20.8483 447.313 21.455C447.92 22.0183 448.223 22.8417 448.223 23.925C448.223 25.0517 447.92 25.9183 447.313 26.525C446.75 27.1317 445.905 27.435 444.778 27.435ZM438.798 60C438.668 60 438.603 59.87 438.603 59.61C438.603 59.35 438.668 59.22 438.798 59.22C440.272 59.22 441.247 58.9167 441.723 58.31C442.2 57.7033 442.438 56.5117 442.438 54.735V42.905C442.438 41.4317 442.287 40.37 441.983 39.72C441.68 39.0267 441.16 38.68 440.423 38.68C439.773 38.68 438.928 38.94 437.888 39.46H437.823C437.65 39.46 437.52 39.3517 437.433 39.135C437.347 38.9183 437.368 38.7667 437.498 38.68L446.858 34.325L447.053 34.26C447.227 34.26 447.4 34.3683 447.573 34.585C447.79 34.7583 447.898 34.91 447.898 35.04V36.405C447.812 38.225 447.768 40.37 447.768 42.84V54.735C447.768 56.5117 448.007 57.7033 448.483 58.31C449.003 58.9167 450 59.22 451.473 59.22C451.603 59.22 451.668 59.35 451.668 59.61C451.668 59.87 451.603 60 451.473 60C450.39 60 449.523 59.9783 448.873 59.935L445.103 59.87L441.333 59.935C440.727 59.9783 439.882 60 438.798 60ZM480.374 56.49C480.547 56.49 480.656 56.5983 480.699 56.815C480.742 56.9883 480.677 57.1183 480.504 57.205L473.809 60.39C473.636 60.4767 473.441 60.52 473.224 60.52C472.574 60.52 471.946 60.1517 471.339 59.415C470.776 58.635 470.407 57.6167 470.234 56.36L467.244 58.44C466.204 59.1767 465.251 59.6967 464.384 60C463.561 60.3033 462.629 60.455 461.589 60.455C459.812 60.455 458.447 60.0433 457.494 59.22C456.584 58.3533 456.129 57.2267 456.129 55.84C456.129 54.67 456.432 53.7167 457.039 52.98C457.689 52.2433 458.491 51.6583 459.444 51.225C460.441 50.7483 461.892 50.1633 463.799 49.47L470.104 47.13V43.23C470.104 40.5433 469.822 38.5933 469.259 37.38C468.739 36.1233 467.894 35.495 466.724 35.495C465.294 35.495 464.254 36.0367 463.604 37.12C462.997 38.16 462.629 39.33 462.499 40.63C462.239 42.84 461.134 43.945 459.184 43.945C458.231 43.945 457.516 43.7283 457.039 43.295C456.606 42.8617 456.389 42.32 456.389 41.67C456.389 40.4567 457.104 39.2867 458.534 38.16C460.007 36.99 461.762 36.0583 463.799 35.365C465.879 34.6283 467.699 34.26 469.259 34.26C471.122 34.26 472.596 34.845 473.679 36.015C474.806 37.185 475.369 38.94 475.369 41.28V52.98C475.369 54.3233 475.586 55.3417 476.019 56.035C476.452 56.7283 477.081 57.075 477.904 57.075C478.554 57.075 479.334 56.88 480.244 56.49H480.374ZM470.104 55.32V54.67V48.235L466.204 49.86C465.077 50.2933 464.146 50.8133 463.409 51.42C462.716 51.9833 462.369 52.8067 462.369 53.89C462.369 54.93 462.694 55.775 463.344 56.425C464.037 57.0317 464.861 57.335 465.814 57.335C466.594 57.335 467.417 57.075 468.284 56.555L470.104 55.32Z" fill="white"/>
<defs>
<radialGradient id="paint0_angular_109_12" cx="0" cy="0" r="1" gradientUnits="userSpaceOnUse" gradientTransform="translate(30.22 19.5796) rotate(90) scale(3.7437 28.22)">
<stop stop-color="#DBBC80"/>
<stop offset="1" stop-color="#AB8219"/>
</radialGradient>
<radialGradient id="paint1_angular_109_12" cx="0" cy="0" r="1" gradientUnits="userSpaceOnUse" gradientTransform="translate(30.7464 64.818) rotate(90) scale(3.62271 26.7464)">
<stop stop-color="#DBBC80"/>
<stop offset="1" stop-color="#AB8219"/>
</radialGradient>
<radialGradient id="paint2_angular_109_12" cx="0" cy="0" r="1" gradientUnits="userSpaceOnUse" gradientTransform="translate(16.7891 41.8636) rotate(90) scale(15.3636 1.78911)">
<stop stop-color="#DBBC80"/>
<stop offset="1" stop-color="#AB8219"/>
</radialGradient>
<radialGradient id="paint3_angular_109_12" cx="0" cy="0" r="1" gradientUnits="userSpaceOnUse" gradientTransform="translate(23.4424 41.8636) rotate(90) scale(15.3636 1.78911)">
<stop stop-color="#DBBC80"/>
<stop offset="1" stop-color="#AB8219"/>
</radialGradient>
<radialGradient id="paint4_angular_109_12" cx="0" cy="0" r="1" gradientUnits="userSpaceOnUse" gradientTransform="translate(30.2208 41.8636) rotate(90) scale(15.3636 1.78911)">
<stop stop-color="#DBBC80"/>
<stop offset="1" stop-color="#AB8219"/>
</radialGradient>
<radialGradient id="paint5_angular_109_12" cx="0" cy="0" r="1" gradientUnits="userSpaceOnUse" gradientTransform="translate(36.8116 41.8636) rotate(90) scale(15.3636 1.78911)">
<stop stop-color="#DBBC80"/>
<stop offset="1" stop-color="#AB8219"/>
</radialGradient>
<radialGradient id="paint6_angular_109_12" cx="0" cy="0" r="1" gradientUnits="userSpaceOnUse" gradientTransform="translate(43.5596 41.8636) rotate(90) scale(15.3636 1.78911)">
<stop stop-color="#DBBC80"/>
<stop offset="1" stop-color="#AB8219"/>
</radialGradient>
<radialGradient id="paint7_angular_109_12" cx="0" cy="0" r="1" gradientUnits="userSpaceOnUse" gradientTransform="translate(16.7891 75.7959) rotate(90) scale(2.70411 1.78911)">
<stop stop-color="#DBBC80"/>
<stop offset="1" stop-color="#AB8219"/>
</radialGradient>
<radialGradient id="paint8_angular_109_12" cx="0" cy="0" r="1" gradientUnits="userSpaceOnUse" gradientTransform="translate(23.4424 75.7959) rotate(90) scale(2.70411 1.78911)">
<stop stop-color="#DBBC80"/>
<stop offset="1" stop-color="#AB8219"/>
</radialGradient>
<radialGradient id="paint9_angular_109_12" cx="0" cy="0" r="1" gradientUnits="userSpaceOnUse" gradientTransform="translate(30.2217 75.7959) rotate(90) scale(2.70411 1.78911)">
<stop stop-color="#DBBC80"/>
<stop offset="1" stop-color="#AB8219"/>
</radialGradient>
<radialGradient id="paint10_angular_109_12" cx="0" cy="0" r="1" gradientUnits="userSpaceOnUse" gradientTransform="translate(36.8125 75.7959) rotate(90) scale(2.70411 1.78911)">
<stop stop-color="#DBBC80"/>
<stop offset="1" stop-color="#AB8219"/>
</radialGradient>
<radialGradient id="paint11_angular_109_12" cx="0" cy="0" r="1" gradientUnits="userSpaceOnUse" gradientTransform="translate(43.5596 75.7959) rotate(90) scale(2.70411 1.78911)">
<stop stop-color="#DBBC80"/>
<stop offset="1" stop-color="#AB8219"/>
</radialGradient>
<radialGradient id="paint12_angular_109_12" cx="0" cy="0" r="1" gradientUnits="userSpaceOnUse" gradientTransform="translate(23.4405 3.20411) rotate(90) scale(2.70411 1.78911)">
<stop stop-color="#DBBC80"/>
<stop offset="1" stop-color="#AB8219"/>
</radialGradient>
<radialGradient id="paint13_angular_109_12" cx="0" cy="0" r="1" gradientUnits="userSpaceOnUse" gradientTransform="translate(30.2208 3.20411) rotate(90) scale(2.70411 1.78911)">
<stop stop-color="#DBBC80"/>
<stop offset="1" stop-color="#AB8219"/>
</radialGradient>
<radialGradient id="paint14_angular_109_12" cx="0" cy="0" r="1" gradientUnits="userSpaceOnUse" gradientTransform="translate(36.8106 3.20411) rotate(90) scale(2.70411 1.78911)">
<stop stop-color="#DBBC80"/>
<stop offset="1" stop-color="#AB8219"/>
</radialGradient>
<radialGradient id="paint15_angular_109_12" cx="0" cy="0" r="1" gradientUnits="userSpaceOnUse" gradientTransform="translate(30.7431 22.2847) rotate(-180) scale(17.7432 1.78468)">
<stop stop-color="#DBBC80"/>
<stop offset="1" stop-color="#AB8219"/>
</radialGradient>
<radialGradient id="paint16_angular_109_12" cx="0" cy="0" r="1" gradientUnits="userSpaceOnUse" gradientTransform="translate(30.2568 62.0855) rotate(-180) scale(17.7432 1.78469)">
<stop stop-color="#DBBC80"/>
<stop offset="1" stop-color="#AB8219"/>
</radialGradient>
<radialGradient id="paint17_angular_109_12" cx="0" cy="0" r="1" gradientUnits="userSpaceOnUse" gradientTransform="translate(30.2568 9.55909) rotate(-180) scale(17.7432 1.78468)">
<stop stop-color="#DBBC80"/>
<stop offset="1" stop-color="#AB8219"/>
</radialGradient>
</defs>
</svg>
